<?xml version="1.0" encoding="UTF-8" standalone="no"?>
<!-- Created with Inkscape (http://www.inkscape.org/) -->
<svg
   xmlns:dc="http://purl.org/dc/elements/1.1/"
   xmlns:cc="http://creativecommons.org/ns#"
   xmlns:rdf="http://www.w3.org/1999/02/22-rdf-syntax-ns#"
   xmlns:svg="http://www.w3.org/2000/svg"
   xmlns="http://www.w3.org/2000/svg"
   xmlns:sodipodi="http://sodipodi.sourceforge.net/DTD/sodipodi-0.dtd"
   xmlns:inkscape="http://www.inkscape.org/namespaces/inkscape"
   version="1.0"
   width="459.88599"
   height="379.23001pt"
   viewBox="0 0 459.886 421.887"
   id="svg2"
   xml:space="preserve"
   sodipodi:version="0.32"
   inkscape:version="0.46"
   sodipodi:docname="Wikimedia_New_York_City_logo.svg"
   inkscape:output_extension="org.inkscape.output.svg.inkscape"><metadata
   id="metadata21"><rdf:RDF><cc:Work
       rdf:about=""><dc:format>image/svg+xml</dc:format><dc:type
         rdf:resource="http://purl.org/dc/dcmitype/StillImage" /></cc:Work></rdf:RDF></metadata><sodipodi:namedview
   inkscape:window-height="785"
   inkscape:window-width="1049"
   inkscape:pageshadow="2"
   inkscape:pageopacity="0.0"
   guidetolerance="10.0"
   gridtolerance="10.0"
   objecttolerance="10.0"
   borderopacity="1.0"
   bordercolor="#666666"
   pagecolor="#ffffff"
   id="base"
   showgrid="false"
   inkscape:zoom="1.0421116"
   inkscape:cx="237.55707"
   inkscape:cy="206.36229"
   inkscape:window-x="0"
   inkscape:window-y="25"
   inkscape:current-layer="svg2" /><defs
   id="defs36"><inkscape:perspective
   sodipodi:type="inkscape:persp3d"
   inkscape:vp_x="0 : 237.01875 : 1"
   inkscape:vp_y="0 : 1000 : 0"
   inkscape:vp_z="459.88599 : 237.01875 : 1"
   inkscape:persp3d-origin="229.94299 : 158.0125 : 1"
   id="perspective23" />
			
			
			
			
			
		
				
				
				
				
				
				
				
				
				
			
				
				
				
				
				
				
				
				
				
			</defs>
	
		
	<g
   id="g3251"><path
     d="M 172.815,31.241 C 172.815,-0.374 198.444,-26 230.063,-26 C 261.682,-26 287.31,-0.374 287.31,31.241 C 287.31,62.853 261.681,88.477 230.063,88.477 C 198.445,88.477 172.815,62.853 172.815,31.241 L 172.815,31.241 z "
     style="fill:#990000"
     id="path7" /><path
     d="M 299.341,65.7 C 320.737,84.774 334.208,112.538 334.208,143.454 C 334.208,196.814 294.065,240.797 242.332,246.869 L 242.332,122.704 L 299.341,65.7 L 299.341,65.7 z "
     style="fill:#339966"
     id="path9" /><path
     d="M 125.919,143.454 C 125.919,112.537 139.391,84.774 160.785,65.7 L 217.794,122.704 L 217.794,246.869 C 166.058,240.797 125.919,196.814 125.919,143.454 L 125.919,143.454 z "
     style="fill:#339966"
     id="path11" /><path
     d="M 56.889,146.004 C 56.889,95.381 78.616,49.834 113.253,18.172 L 144.897,49.813 C 119.173,73.06 103.008,106.686 103.008,144.084 C 103.008,214.246 159.893,271.125 230.063,271.125 C 300.236,271.125 357.117,214.246 357.117,144.084 C 357.117,106.686 340.955,73.06 315.232,49.813 L 346.878,18.172 C 381.517,49.833 403.238,95.382 403.238,146.004 C 403.238,241.632 325.711,319.157 230.063,319.157 C 134.42,319.157 56.889,241.633 56.889,146.004 L 56.889,146.004 z "
     style="fill:#006699"
     id="path13" /><path
     d="M 22.898,395.887 L 0,342.664 L 7.174,342.664 L 14.384,342.664 L 26.242,372.126 L 26.217,372.126 L 39.827,342.664 L 44.895,342.664 L 50,342.664 L 63.575,372.163 L 63.595,372.163 L 75.407,342.664 L 82.578,342.664 L 89.788,342.664 L 66.928,395.887 L 64.113,395.887 L 61.259,395.887 L 44.9,362.748 L 44.895,362.748 L 28.565,395.887 L 25.75,395.887 L 22.898,395.887 z "
     style="fill:#484848"
     id="path17" /><path
     d="M 96.067,342.664 L 102.603,342.664 L 109.176,342.664 L 109.176,395.099 L 102.64,395.099 L 96.067,395.099 L 96.067,342.664 L 96.067,342.664 z "
     style="fill:#484848"
     id="path19" /><path
     d="M 134.267,395.099 L 127.731,395.099 L 121.159,395.099 L 121.159,342.664 L 127.694,342.664 L 134.267,342.664 L 134.267,367.474 L 134.288,367.474 L 151.022,342.664 L 158.425,342.664 L 165.828,342.664 L 147.546,367.81 L 171.345,395.098 L 163.047,395.098 L 154.711,395.098 L 134.251,370.1 L 134.266,370.1 L 134.266,395.099 L 134.267,395.099 z "
     style="fill:#484848"
     id="path21" /><path
     d="M 176.911,342.664 L 183.447,342.664 L 190.019,342.664 L 190.019,395.099 L 183.484,395.099 L 176.911,395.099 L 176.911,342.664 z "
     style="fill:#484848"
     id="path23" /><path
     d="M 215.111,395.099 L 208.575,395.099 L 202.002,395.099 L 202.002,342.664 L 207.9,342.664 L 213.795,342.664 L 230.203,361.578 L 230.209,361.578 L 246.582,342.664 L 252.48,342.664 L 258.378,342.664 L 258.378,395.099 L 251.842,395.099 L 245.27,395.099 L 245.27,362.895 L 245.303,362.895 L 231.332,379.034 L 230.208,379.034 L 229.08,379.034 L 215.1,362.895 L 215.112,362.895 L 215.112,395.099 L 215.111,395.099 z "
     style="fill:#484848"
     id="path25" /><path
     d="M 270.176,395.099 L 270.176,342.664 L 308.812,342.664 L 308.812,347.377 L 308.812,352.126 L 283.285,352.126 L 283.285,363.362 L 307.235,363.362 L 307.235,368.073 L 307.235,372.824 L 283.285,372.824 L 283.285,385.637 L 308.812,385.637 L 308.812,390.349 L 308.812,395.099 L 270.176,395.099 z "
     style="fill:#484848"
     id="path27" /><path
     d="M 318.748,342.664 L 325.283,342.664 L 338.656,342.664 C 349.424,342.664 357.5,344.854 362.887,349.232 C 368.218,353.562 370.885,360.08 370.885,368.787 L 370.885,368.9 C 370.91,377.632 368.345,384.182 363.186,388.548 C 358.027,392.914 350.277,395.098 339.934,395.098 L 325.283,395.098 L 318.748,395.098 L 318.748,342.664 L 318.748,342.664 z M 331.856,385.438 L 339.951,385.438 C 345.695,385.438 350.004,384.064 352.878,381.313 C 355.751,378.563 357.186,374.424 357.186,368.9 C 357.186,363.375 355.643,359.229 352.557,356.467 C 349.471,353.703 344.841,352.322 338.669,352.322 L 331.856,352.322 L 331.856,385.438 L 331.856,385.438 z "
     style="fill:#484848"
     id="path29" /><path
     d="M 380.84,342.664 L 387.376,342.664 L 393.948,342.664 L 393.948,395.099 L 387.413,395.099 L 380.84,395.099 L 380.84,342.664 z "
     style="fill:#484848"
     id="path31" /><path
     d="M 422.46,341.876 L 430.081,341.876 L 437.737,341.876 L 459.885,395.099 L 452.749,395.099 L 445.611,395.099 L 441.715,385.144 L 418.44,385.144 L 414.584,395.099 L 407.45,395.099 L 400.314,395.099 L 422.46,341.876 z M 422.054,375.682 L 438.107,375.682 L 430.044,355.136 L 430.034,355.136 L 422.054,375.682 z "
     style="fill:#484848"
     id="path33" /><g
     id="g3243" /></g><path
   style="font-size:44px;font-style:normal;font-variant:normal;font-weight:bold;font-stretch:normal;text-align:start;line-height:125%;writing-mode:lr-tb;text-anchor:start;fill:#666666;fill-opacity:1;stroke:none;stroke-width:1px;stroke-linecap:butt;stroke-linejoin:miter;stroke-opacity:1;font-family:Sans"
   d="M 35.563118,409.16898 L 44.801399,409.16898 L 56.467415,431.16898 L 56.467415,409.16898 L 64.309212,409.16898 L 64.309212,441.24515 L 55.07093,441.24515 L 43.404915,419.24515 L 43.404915,441.24515 L 35.563118,441.24515 L 35.563118,409.16898 M 72.430305,409.16898 L 94.752571,409.16898 L 94.752571,415.42093 L 80.70179,415.42093 L 80.70179,421.39359 L 93.91468,421.39359 L 93.91468,427.64554 L 80.70179,427.64554 L 80.70179,434.99319 L 95.225227,434.99319 L 95.225227,441.24515 L 72.430305,441.24515 L 72.430305,409.16898 M 99.779915,409.16898 L 107.70765,409.16898 L 113.25062,432.47952 L 118.75062,409.16898 L 126.72132,409.16898 L 132.22132,432.47952 L 137.76429,409.16898 L 145.62757,409.16898 L 138.06507,441.24515 L 128.52601,441.24515 L 122.70374,416.86038 L 116.94593,441.24515 L 107.40687,441.24515 L 99.779915,409.16898 M 161.89124,409.16898 L 170.93616,409.16898 L 178.24085,420.59866 L 185.54554,409.16898 L 194.61195,409.16898 L 182.38734,427.73148 L 182.38734,441.24515 L 174.11585,441.24515 L 174.11585,427.73148 L 161.89124,409.16898 M 211.34827,414.58304 C 208.82742,414.58306 206.87235,415.51405 205.48304,417.37601 C 204.09371,419.23801 203.39904,421.8591 203.39906,425.23929 C 203.39904,428.60519 204.09371,431.21912 205.48304,433.08109 C 206.87235,434.94307 208.82742,435.87406 211.34827,435.87405 C 213.88341,435.87406 215.84565,434.94307 217.23499,433.08109 C 218.62429,431.21912 219.31895,428.60519 219.31898,425.23929 C 219.31895,421.8591 218.62429,419.23801 217.23499,417.37601 C 215.84565,415.51405 213.88341,414.58306 211.34827,414.58304 M 211.34827,408.5889 C 216.5045,408.58893 220.54356,410.06419 223.46546,413.01468 C 226.3873,415.96523 227.84824,420.04009 227.84827,425.23929 C 227.84824,430.42419 226.3873,434.4919 223.46546,437.44241 C 220.54356,440.39294 216.5045,441.86819 211.34827,441.86819 C 206.20633,441.86819 202.16728,440.39294 199.23109,437.44241 C 196.30921,434.4919 194.84827,430.42419 194.84827,425.23929 C 194.84827,420.04009 196.30921,415.96523 199.23109,413.01468 C 202.16728,410.06419 206.20633,408.58893 211.34827,408.5889 M 245.8307,423.39163 C 247.56375,423.39165 248.80268,423.06938 249.54749,422.42484 C 250.30659,421.78032 250.68614,420.72043 250.68616,419.24515 C 250.68614,417.78423 250.30659,416.73866 249.54749,416.10843 C 248.80268,415.47825 247.56375,415.16314 245.8307,415.16312 L 242.35023,415.16312 L 242.35023,423.39163 L 245.8307,423.39163 M 242.35023,429.10648 L 242.35023,441.24515 L 234.07874,441.24515 L 234.07874,409.16898 L 246.71156,409.16898 C 250.9368,409.16901 254.03054,409.87799 255.99281,411.29593 C 257.96934,412.71393 258.95762,414.95546 258.95765,418.02054 C 258.95762,420.14035 258.442,421.88058 257.41077,423.24124 C 256.39382,424.60194 254.85411,425.60454 252.79163,426.24905 C 253.92312,426.50688 254.93288,427.09412 255.82093,428.01077 C 256.72325,428.91313 257.63275,430.28813 258.54945,432.13577 L 263.03968,441.24515 L 254.23109,441.24515 L 250.32093,433.27444 C 249.53315,431.67029 248.73107,430.57459 247.91468,429.98734 C 247.11258,429.40011 246.03836,429.10649 244.69202,429.10648 L 242.35023,429.10648 M 267.93812,409.16898 L 276.2096,409.16898 L 276.2096,420.87796 L 288.13343,409.16898 L 297.73695,409.16898 L 282.28968,424.35843 L 299.32679,441.24515 L 288.97132,441.24515 L 276.2096,428.61234 L 276.2096,441.24515 L 267.93812,441.24515 L 267.93812,409.16898 M 342.78968,439.48343 C 341.27142,440.27119 339.68874,440.86559 338.04163,441.26663 C 336.39448,441.66767 334.67573,441.86819 332.88538,441.86819 C 327.54292,441.86819 323.3105,440.37861 320.18812,437.39944 C 317.06572,434.40596 315.50452,430.35258 315.50452,425.23929 C 315.50452,420.11171 317.06572,416.05832 320.18812,413.07913 C 323.3105,410.08567 327.54292,408.58893 332.88538,408.5889 C 334.67573,408.58893 336.39448,408.78945 338.04163,409.19046 C 339.68874,409.59153 341.27142,410.18593 342.78968,410.97366 L 342.78968,417.61234 C 341.2571,416.56679 339.74603,415.80051 338.25648,415.31351 C 336.76687,414.82655 335.19851,414.58306 333.5514,414.58304 C 330.60086,414.58306 328.28055,415.52838 326.59046,417.41898 C 324.90035,419.30962 324.05529,421.91639 324.05531,425.23929 C 324.05529,428.54789 324.90035,431.1475 326.59046,433.03812 C 328.28055,434.92875 330.60086,435.87406 333.5514,435.87405 C 335.19851,435.87406 336.76687,435.63057 338.25648,435.14359 C 339.74603,434.65661 341.2571,433.89034 342.78968,432.84476 L 342.78968,439.48343 M 349.66468,409.16898 L 357.93616,409.16898 L 357.93616,441.24515 L 349.66468,441.24515 L 349.66468,409.16898 M 362.25452,409.16898 L 391.81702,409.16898 L 391.81702,415.42093 L 381.18226,415.42093 L 381.18226,441.24515 L 372.91077,441.24515 L 372.91077,415.42093 L 362.25452,415.42093 L 362.25452,409.16898 M 391.60218,409.16898 L 400.6471,409.16898 L 407.95179,420.59866 L 415.25648,409.16898 L 424.32288,409.16898 L 412.09827,427.73148 L 412.09827,441.24515 L 403.82679,441.24515 L 403.82679,427.73148 L 391.60218,409.16898"
   id="text2472" /></svg>